Coordinates
version=1
nRows=14
nColumns=36
inDegrees=yes

Units are S.I. units (second, meters, Newtons, ...)
If the header above contains a line with 'inDegrees', this indicates whether rotational values are in degrees (yes) or radians (no).

endheader
time	pelvis_tilt	pelvis_list	pelvis_rotation	pelvis_tx	pelvis_ty	pelvis_tz	hip_flexion_r	hip_adduction_r	hip_rotation_r	knee_angle_r	knee_angle_r_beta	ankle_angle_r	subtalar_angle_r	mtp_angle_r	hip_flexion_l	hip_adduction_l	hip_rotation_l	knee_angle_l	knee_angle_l_beta	ankle_angle_l	subtalar_angle_l	mtp_angle_l	lumbar_extension	lumbar_bending	lumbar_rotation	arm_flex_r	arm_add_r	arm_rot_r	elbow_flex_r	pro_sup_r	arm_flex_l	arm_add_l	arm_rot_l	elbow_flex_l	pro_sup_l
      5.91250000	    -37.07457001	     -2.40485383	      0.10757282	      0.68825051	      0.94705539	     -0.07581583	     37.60199408	      0.67241602	     -1.81520326	      6.59986398	      0.11518936	    -16.76450115	    -13.72663942	     -7.49999987	     33.16357452	     -1.86114151	     11.21288767	      8.21625465	      0.14340070	    -12.96615924	    -18.05038118	     -7.49999987	     -2.99548421	     -5.95149036	     -1.51399629	     -8.16572164	    -18.68135656	    332.24699060	     52.23885484	     83.81524181	    -13.04208630	     -7.39747923	    -21.13919762	     38.86269210	     72.33974739
      5.91666670	    -36.90554049	     -2.40508220	      0.16155330	      0.69127226	      0.94851888	     -0.07833321	     37.22271423	      0.58061856	     -2.08691261	      6.48160738	      0.11312539	    -16.85151797	    -13.43984066	     -7.49999987	     32.92868008	     -1.76663416	     11.22587541	      8.32884049	      0.14536569	    -13.14412567	    -18.27577285	     -7.49999987	     -2.94346461	     -5.88432267	     -1.40178119	     -8.37569070	    -18.83613684	    331.36960692	     53.34653330	     83.56094856	    -12.94722754	     -7.26121493	    -21.04281779	     38.48855856	     71.92851446
      5.92083330	    -36.75234610	     -2.38137969	      0.21182214	      0.69271128	      0.94969653	     -0.07906198	     36.88020245	      0.47715325	     -2.33880568	      6.34680781	      0.11077269	    -16.91314216	    -13.22400074	     -7.49999987	     32.77657412	     -1.64658972	     11.11908371	      8.52849414	      0.14885030	    -13.19946841	    -18.34011774	     -7.49999987	     -2.90333482	     -5.88895634	     -1.70092391	     -7.93124805	    -18.95316656	    330.60578966	     53.84048281	     87.95036098	    -13.17555929	     -6.91903927	    -22.29874993	     38.54893276	     75.06374647
      5.92500000	    -36.57000758	     -2.33008999	      0.25069667	      0.69552220	      0.94789663	     -0.08258159	     36.47583978	      0.31359214	     -2.42625004	      6.24293072	      0.10895970	    -16.82141483	    -13.02462882	     -7.49999987	     32.51222667	     -1.43303022	     11.05783167	      8.66574625	      0.15124580	    -13.01578610	    -18.40600935	     -7.49999987	     -2.78584776	     -5.75757585	     -1.50236275	     -8.32675228	    -19.23318205	    329.71720466	     54.89701195	     86.94591548	    -13.29987196	     -6.77474416	    -22.01990789	     38.36133736	     74.38446105
      5.92916670	    -36.58734718	     -2.28506116	      0.19457822	      0.69649987	      0.94577854	     -0.08245268	     36.35975187	      0.21293555	     -2.53538260	      6.22022767	      0.10856345	    -16.52057672	    -12.54975310	     -7.49999987	     32.51171667	     -1.32427078	     10.81678093	      8.86582517	      0.15473784	    -12.52490361	    -18.09709170	     -7.49999987	     -2.41962003	     -5.69908892	     -1.34036002	     -8.51373090	    -19.35320165	    328.61694467	     55.82724457	     86.20383360	    -13.93533588	     -6.48798606	    -21.86253116	     38.85522721	     73.87947883
      5.93333330	    -36.46167277	     -2.24735309	      0.20897553	      0.70001131	      0.94864846	     -0.08360712	     36.01946210	      0.07550471	     -2.46426312	      6.17613129	      0.10779383	    -16.49714854	    -12.29929474	     -7.49999987	     32.33486153	     -1.16573623	     11.23512581	      9.00524569	      0.15717119	    -13.10572573	    -19.06235282	     -7.49999987	     -2.20013381	     -5.37685002	     -0.84896293	     -8.96878017	    -19.83993205	    328.02674098	     57.10659617	     85.76514829	    -13.90992809	     -6.34225734	    -20.83923828	     38.12618651	     73.67167718
      5.93750000	    -36.42539614	     -2.18527659	      0.20331272	      0.70200751	      0.94814319	     -0.08457020	     35.75193097	     -0.06677558	     -2.41165149	      6.04220926	      0.10545645	    -16.39847437	    -11.93869380	     -7.49999987	     32.31953961	     -1.06548611	     11.21830663	      9.28482664	      0.16205080	    -13.08163134	    -19.20901354	     -7.49999987	     -1.86646909	     -5.15151206	     -0.39074697	     -9.34030313	    -20.03893148	    326.93267399	     58.25170096	     84.70182803	    -14.04539799	     -5.98329404	    -20.76609459	     37.84688573	     72.86333917
      5.94166670	    -36.45234064	     -2.09942121	      0.19814810	      0.70323981	      0.94684777	     -0.08402786	     35.57239986	     -0.18614054	     -2.26692311	      5.93203015	      0.10353346	    -16.40222736	    -11.84428024	     -7.49999987	     32.42506333	     -0.94616424	     11.34434912	      9.65011853	      0.16842634	    -13.14291053	    -19.38741252	     -7.49999987	     -1.50841544	     -5.04445773	     -0.11412969	     -9.50492332	    -20.11025889	    326.04270953	     59.29104323	     84.30230849	    -14.34143477	     -5.80367381	    -20.70940996	     37.86586765	     72.53800841
      5.94583330	    -36.53933291	     -2.04246585	      0.20716834	      0.70476919	      0.94703834	     -0.08423060	     35.47504148	     -0.29125620	     -2.15402355	      5.84643936	      0.10203962	    -16.35380613	    -11.69705543	     -7.49999987	     32.70590982	     -0.84935780	     11.22848309	     10.19976813	      0.17801954	    -12.96277538	    -19.23381312	     -7.49999987	     -1.14818986	     -4.93648185	      0.37792051	     -9.95946134	    -20.01102339	    324.99501607	     60.63551654	     83.55529219	    -14.37845964	     -5.71324385	    -20.45774387	     37.77039241	     71.93032153
      5.95000000	    -36.69147923	     -2.01478244	      0.24122406	      0.70503679	      0.94734456	     -0.08692833	     35.48995546	     -0.43096258	     -2.04480823	      5.70855379	      0.09963306	    -16.40522453	    -11.57438409	     -7.49999987	     33.19440807	     -0.68371026	     11.33465990	     10.89844210	      0.19021370	    -13.11515927	    -19.56509521	     -7.49999987	     -0.80646394	     -4.75337622	      0.45857892	     -9.79930719	    -20.18323093	    324.54779117	     61.55979094	     83.35479506	    -14.53929433	     -5.54511414	    -20.29214926	     37.59596484	     71.81953974
      5.95416670	    -36.86542334	     -1.95898356	      0.22266979	      0.70641976	      0.94645574	     -0.08667452	     35.56432612	     -0.56112546	     -2.07872530	      5.60626881	      0.09784785	    -16.30996016	    -11.23141539	     -7.49999987	     33.69607978	     -0.53542175	     11.25188828	     11.59193456	      0.20231742	    -13.12621996	    -19.58474554	     -7.49999987	     -0.42198412	     -4.69507064	      0.68997290	     -9.71053706	    -20.07976604	    323.48024847	     62.57215302	     87.28302806	    -14.67104088	     -5.35773663	    -20.69004937	     37.66134496	     74.78973931
      5.95833330	    -37.01341010	     -1.91997578	      0.20374244	      0.70786796	      0.94628747	     -0.08754536	     35.59951628	     -0.69204935	     -2.05741693	      5.49067385	      0.09583034	    -16.38401229	    -11.06511402	     -7.49999987	     34.19736174	     -0.42273375	     11.09512802	     12.36645802	      0.21583541	    -13.01287149	    -19.49540544	     -7.49999987	     -0.06421682	     -4.62522207	      0.97503906	     -9.87976898	    -20.14216203	    323.07963350	     63.70563420	     86.18783059	    -14.71966731	     -5.30946494	    -20.49452220	     37.50997396	     74.06941320
      5.96250000	    -37.20511348	     -1.85388651	      0.13736549	      0.70868133	      0.94489724	     -0.08906428	     35.71565208	     -0.80942152	     -1.98262670	      5.44877898	      0.09509913	    -16.49800840	    -10.98935935	     -7.49999987	     34.82258311	     -0.27874093	     11.10313375	     13.26850904	      0.23157917	    -12.99137999	    -19.65482289	     -7.49999987	      0.36304120	     -4.57484245	      1.07743426	     -9.79542822	    -20.32299299	    322.65545480	     64.69559736	     85.65332891	    -14.89694263	     -5.21207937	    -20.31018226	     37.38435931	     73.76926768
      5.96666670	    -37.40994107	     -1.80015923	      0.08006667	      0.70852178	      0.94557596	     -0.08803097	     35.86844706	     -0.87581743	     -2.01749655	      5.41962019	      0.09459022	    -16.52676727	    -10.87868433	     -7.49999987	     35.49508485	     -0.16309853	     11.01569804	     14.16669869	      0.24725554	    -12.90079952	    -19.49441707	     -7.49999987	      0.68443130	     -4.60342645	      1.24805759	     -9.70800511	    -20.34552987	    322.13055999	     65.69931628	     84.94954574	    -14.93067144	     -5.27504464	    -20.08108704	     37.40218386	     73.31118663
